<svg xmlns="http://www.w3.org/2000/svg" viewBox="0 0 512 512" width="128" height="128"><path fill="#FFF" d="M256 16C123.449 16 16 123.508 16 256c0 132.578 107.449 240 240 240s240-107.422 240-240c0-132.492-107.449-240-240-240m0 112c17.674 0 32 14.326 32 32 0 17.672-14.326 32-32 32s-32-14.328-32-32c0-17.674 14.326-32 32-32m40 256h-80c-13.25 0-24-10.75-24-24s10.75-24 24-24h16v-64h-8c-13.25 0-24-10.75-24-24s10.75-24 24-24h32c13.25 0 24 10.75 24 24v88h16c13.25 0 24 10.75 24 24s-10.75 24-24 24"/></svg>